<svg width="110" height="18" viewBox="0 0 110 18" fill="none" xmlns="http://www.w3.org/2000/svg">
<g clip-path="url(#clip0_4256_78)">
<path d="M9.3712 0.336914H19.6698C19.6635 0.473867 19.6164 0.605765 19.5347 0.715474C19.186 1.31661 18.8723 1.94229 18.5297 2.54343C18.0451 3.40658 17.5919 4.2855 17.0995 5.14515C16.7875 5.76382 16.4353 6.3632 16.1024 6.97135C14.1012 6.97135 12.1001 6.97135 10.099 6.97135C9.99438 6.97135 9.89066 6.97661 9.78607 6.98274C9.69891 7.21409 9.55423 7.41651 9.43744 7.63383C9.28491 7.8827 9.16115 8.14822 9.01037 8.39709C8.85087 8.73183 8.63036 9.03152 8.46999 9.36539C8.13879 9.9306 7.82938 10.5046 7.50515 11.0759C7.16698 11.6601 6.83636 12.2525 6.5133 12.853C6.37658 13.0659 6.25062 13.2855 6.1359 13.5111C5.45869 14.6959 4.80326 15.8912 4.12518 17.075C4.06766 17.2023 3.9919 17.3204 3.90031 17.4256C2.74111 17.4177 1.58191 17.4256 0.422715 17.4256C0.279942 17.4283 0.138015 17.4483 0 17.4851C0 17.1627 0.214408 16.9042 0.35909 16.6334C0.533405 16.2697 0.766116 15.9324 0.941304 15.5678C2.3306 13.0686 3.70508 10.5607 5.09001 8.05971C5.40378 7.51641 5.6731 6.96171 5.98861 6.42892C6.38256 5.72789 6.7495 5.01108 7.16001 4.31793C7.29074 4.02787 7.4668 3.76236 7.61061 3.47931C8.12136 2.56533 8.62251 1.6461 9.13152 0.732124C9.1919 0.589386 9.27264 0.456252 9.3712 0.336914Z" fill="#896E6E"/>
<path d="M21.3051 4.01714C21.991 2.81223 22.6534 1.59418 23.3489 0.394531H27.0688C27.123 0.397287 27.1768 0.405805 27.2292 0.419944C27.1054 0.608348 27.0017 0.808143 26.8927 1.00443C25.9956 2.62324 25.1011 4.24293 24.2092 5.8635C23.8344 6.52335 23.4857 7.19809 23.1057 7.85444L23.0683 7.86758L23.0613 7.94996C21.3123 11.1046 19.5692 14.2616 17.8318 17.421C14.417 17.4245 11.0018 17.4245 7.58643 17.421C7.78079 17.0126 8.01088 16.6227 8.22704 16.2257C9.19972 14.4275 10.1977 12.6452 11.1564 10.847C13.2546 10.8435 15.3528 10.8435 17.4509 10.847C18.747 8.57738 20.0151 6.29025 21.3016 4.01714H21.3051Z" fill="#896E6E"/>
<path d="M59.6953 0.347656V17.6282H62.6735V5.47662L68.106 13.4798L73.495 5.28646V17.6282H76.5603V0.347656H73.2632L68.1278 8.32458L62.935 0.347656H59.6953Z" fill="#896E6E"/>
<path d="M45.7651 4.80469H47.7114V17.7739H45.7651V4.80469Z" fill="#896E6E"/>
<path d="M45.5975 -6.10352e-05H47.8785V2.17578H45.5975V-6.10352e-05Z" fill="#896E6E"/>
<path d="M51.4302 1.08789H53.4636V4.80426H57.4729V6.61557H53.4636V14.32C53.4601 14.6168 53.5286 14.9101 53.6632 15.1744C54.0075 15.8316 54.9427 16.6115 57.4729 15.7001V17.3791C57.4729 17.3791 55.1632 18.6936 53.0714 17.4965C53.0714 17.4965 52.0325 17.0531 51.5958 15.5564C51.4824 15.1555 51.4266 14.7403 51.4302 14.3235V6.58665L49.7158 6.61557V4.80426H51.4442L51.4302 1.08789Z" fill="#896E6E"/>
<path d="M79.6982 0.347656V17.7448H92.6263V14.9406H82.8507V10.3252H91.4645V7.56483H82.8359V3.16933H92.5252V0.347656H79.6982Z" fill="#896E6E"/>
<path d="M93.8395 0.347656H97.522L101.749 6.45544L105.943 0.347656H109.626L103.612 8.83196L110 17.7299H106.122L101.764 11.2313L97.1951 17.7448H93.5127L99.8098 8.90907L93.8395 0.347656Z" fill="#896E6E"/>
<path d="M39.8089 8.71916C39.8089 8.71916 42.6563 7.63869 42.482 4.52784C42.482 4.52784 42.4585 1.53616 39.1081 0.612547C38.5511 0.462482 37.9765 0.388211 37.3998 0.39172H29.3647L29.3865 17.6723H38.0369C38.0369 17.6723 43.0991 17.5627 43.4555 13.0279C43.4555 13.0279 43.8181 9.85835 39.8089 8.71916ZM31.4417 2.17586H36.5701C40.5933 2.16184 40.4774 5.0098 40.4774 5.0098C40.5375 8.25911 36.8455 8.19339 36.8455 8.19339H31.4417V2.17586ZM37.7171 15.8461H31.4417V9.82943H37.4417C41.4649 9.81453 41.3489 12.6625 41.3489 12.6625C41.4091 15.9118 37.7171 15.8461 37.7171 15.8461Z" fill="#896E6E"/>
</g>
<defs>
<clipPath id="clip0_4256_78">
<rect width="110" height="18" fill="white"/>
</clipPath>
</defs>
</svg>
