<svg width="155" height="12" viewBox="0 0 155 12" fill="none" xmlns="http://www.w3.org/2000/svg">
<path fill-rule="evenodd" clip-rule="evenodd" d="M39.5148 9.125C40.4326 9.125 41.2738 8.725 41.8602 8.125C41.9877 7.975 42.2681 7.7 42.2426 7.75L44.2056 9.825C43.0839 11.15 41.4013 12 39.4893 12C36.0987 12 33.3709 9.325 33.3709 6C33.3709 2.675 36.0987 0 39.4893 0C41.2993 0 42.9309 0.775 44.0526 2L42.0896 4.075L41.6308 3.625C41.0699 3.125 40.3306 2.825 39.5148 2.825C37.7558 2.825 36.3026 4.225 36.3026 5.975C36.3026 7.7 37.7303 9.125 39.5148 9.125ZM115.026 11.8C115.944 11.8 116.581 11.175 116.581 10.275C116.581 9.4 115.944 8.8 115.026 8.775C114.134 8.775 113.497 9.4 113.497 10.275C113.497 11.175 114.134 11.8 115.026 11.8ZM65.0847 8.175C64.4984 8.775 63.6571 9.175 62.7393 9.175C60.9548 9.175 59.5271 7.75 59.5271 6.025C59.5271 4.275 60.9803 2.875 62.7393 2.875C63.5551 2.875 64.2944 3.175 64.8553 3.675L65.3141 4.125L67.3026 2C66.1809 0.775 64.5493 0 62.7393 0C59.3487 0 56.6209 2.675 56.6209 6C56.6209 9.325 59.3487 12 62.7393 12C64.6513 12 66.3339 11.15 67.4556 9.825L65.4926 7.75C65.4926 7.75 65.2122 8.025 65.0847 8.175ZM123.618 9.125C124.535 9.125 125.377 8.725 125.963 8.125C126.09 7.975 126.371 7.7 126.345 7.75L128.308 9.825C127.187 11.15 125.504 12 123.592 12C120.201 12 117.474 9.325 117.474 6C117.474 2.675 120.201 0 123.592 0C125.402 0 127.034 0.775 128.155 2L126.192 4.075L125.734 3.625C125.173 3.125 124.433 2.825 123.618 2.825C121.859 2.825 120.405 4.225 120.405 5.975C120.405 7.7 121.833 9.125 123.618 9.125ZM8.25987 5.75C9.3051 5.3 10.0699 4.525 10.0699 3.175V3.15C10.0699 2.35 9.78947 1.75 9.3051 1.3C8.61678 0.6 7.59704 0.25 6.11842 0.25H0V11.75H6.14391C8.94819 11.75 10.5798 10.55 10.5798 8.575V8.55C10.5798 6.975 9.6875 6.2 8.25987 5.75ZM3.26316 2.8H5.37911C6.34786 2.8 6.85773 3.15 6.85773 3.775V3.8C6.85773 4.475 6.29688 4.8 5.30263 4.8H3.26316V2.8ZM7.34211 8.15C7.34211 8.825 6.78125 9.2 5.78701 9.2H3.26316V7.075H5.73602C6.83224 7.075 7.31661 7.475 7.31661 8.1V8.15H7.34211ZM11.5995 0.25H14.8627V8.975H20.1398V11.75H11.5995V0.25ZM76.4293 4.55H72.2484V0.25H68.9852V11.775L72.2484 11.75V7.375H76.4293V11.75H79.6924V0.25H76.4293V4.55ZM86.0913 0.25H89.2015L94.1727 11.75H90.7056L89.8643 9.7H85.3775L84.5362 11.75H81.1456L86.0913 0.25ZM87.5954 4L86.2952 7.25H88.8956L87.5954 4ZM98.889 0.25H95.6258V11.775H98.889V0.25ZM108.322 6.35V0.275H111.585V11.775H108.704L103.682 5.45V11.775H100.419V0.25L103.478 0.275L108.322 6.35ZM56.6719 0.25H52.8224L48.7689 4.925V0.25H45.5058V11.775H48.7689V8.8L49.9671 7.5L53.2558 11.775H57.1308L52.0831 5.2L56.6719 0.25ZM20.3947 6C20.3947 2.675 23.1225 0 26.5132 0C29.8783 0 32.6316 2.675 32.6316 6C32.6316 9.325 29.9038 12 26.5132 12C23.1225 12 20.3947 9.325 20.3947 6ZM23.301 6C23.301 7.725 24.7286 9.15 26.5132 9.15C28.2977 9.15 29.7253 7.75 29.7253 6C29.7253 4.275 28.2977 2.85 26.5132 2.85C24.7541 2.85 23.301 4.25 23.301 6ZM134.707 0C131.317 0 128.589 2.675 128.589 6C128.589 9.325 131.317 12 134.707 12C138.098 12 140.826 9.325 140.826 6C140.826 2.675 138.098 0 134.707 0ZM134.707 9.15C132.923 9.15 131.495 7.725 131.495 6C131.495 4.25 132.948 2.85 134.707 2.85C136.492 2.85 137.919 4.275 137.919 6C137.945 7.75 136.492 9.15 134.707 9.15ZM151.941 4.925L149.595 10.575H147.326L144.981 4.925V11.725H141.922V0.25H145.644L148.474 6.6L151.303 0.25H155V11.725H151.941V4.925Z" fill="#896E6E"/>
</svg>
