<svg width="95" height="21" viewBox="0 0 95 21" fill="none" xmlns="http://www.w3.org/2000/svg">
<path fill-rule="evenodd" clip-rule="evenodd" d="M7.39337 18.3526C8.13358 18.3526 8.81758 18.2162 9.46596 17.9597C9.4715 17.9725 10.7912 20.0491 10.8102 20.0635C9.61558 20.7138 8.36713 21 7.00229 21C2.945 21 0 18.2924 0 13.9701C0 9.61645 3.09542 6.90886 7.00229 6.90886C8.39325 6.90886 9.48971 7.21434 10.5941 7.81246C10.4722 8.01772 9.33533 9.97243 9.33138 9.98045C8.67636 9.7165 7.97719 9.5831 7.27225 9.58758C4.86796 9.58758 3.00517 11.1398 3.00517 13.9701C3.00517 16.648 4.80779 18.3526 7.39337 18.3526ZM17.6265 6.90886C21.6236 6.90886 24.5084 9.77039 24.5084 13.9701C24.5084 18.1393 21.6236 21 17.6265 21C13.6602 21 10.7754 18.1401 10.7754 13.9701C10.7754 9.77039 13.6602 6.90886 17.6265 6.90886ZM17.6265 9.49618C15.4035 9.49618 13.7798 11.2312 13.7798 13.9701C13.7798 16.6793 15.4027 18.4135 17.6273 18.4135C19.9112 18.4135 21.504 16.6793 21.504 13.9701C21.504 11.2312 19.9112 9.49618 17.6265 9.49618ZM26.4021 20.6961V7.21274H29.3764V20.6961H26.4021ZM26.011 3.07319C26.011 2.03891 26.8834 1.21789 27.8746 1.21789C28.8665 1.21789 29.7374 2.03891 29.7374 3.07399C29.7374 4.13955 28.8665 4.99183 27.8746 4.99183C26.8834 4.99183 26.011 4.13955 26.011 3.07399V3.07319ZM31.9723 8.06582C33.835 7.33541 36.1206 6.90886 38.0728 6.90886C41.4691 6.90886 43.6327 8.21736 43.6327 12.0218V20.6961H40.6877V12.296C40.6877 10.3485 39.486 9.64772 37.8322 9.64772C36.78 9.64772 35.7295 9.80005 34.9473 10.0438V20.6961H31.9723V8.06582ZM46.1241 0H49.0984V7.57915C49.7293 7.24401 50.9612 6.90886 52.1328 6.90886C55.9803 6.90886 58.8644 9.40398 58.8644 13.7263C58.8644 18.0783 56.0104 21 51.0823 21C49.3919 20.995 47.7149 20.6967 46.1241 20.118V0ZM49.0984 18.1401C49.6692 18.3221 50.4205 18.4127 51.1718 18.4127C53.9062 18.4127 55.86 16.8917 55.86 13.7865C55.86 11.1695 54.0273 9.61725 51.7734 9.61725C50.6018 9.61725 49.6993 9.92192 49.0976 10.2571L49.0984 18.1401ZM67.4587 11.6562C67.4587 10.1953 66.3765 9.52665 64.904 9.52665C63.3713 9.52665 62.1696 9.98286 61.0581 10.6219V8.00408C62.2298 7.33541 63.7315 6.90886 65.3853 6.90886C68.2995 6.90886 70.3728 8.12595 70.3728 11.5038V20.4219C69.1109 20.7563 67.3091 20.9703 65.8065 20.9703C62.3501 20.9703 59.8255 19.9048 59.8255 16.8613C59.8255 14.1224 62.1387 12.7834 65.9854 12.7834H67.4579L67.4587 11.6562ZM67.4587 14.7911H66.1968C64.1226 14.7911 62.7705 15.4004 62.7705 16.7699C62.7705 18.1697 64.0332 18.7174 65.8358 18.7174C66.287 18.7174 66.918 18.6564 67.4587 18.565V14.7911ZM72.5365 17.0441C73.7691 17.9869 75.2408 18.565 76.593 18.565C77.9158 18.565 78.7875 18.1088 78.7875 17.0441C78.7875 15.9472 78.0061 15.552 76.2937 15.0958C73.5284 14.4567 72.356 13.3311 72.356 10.9875C72.356 8.24782 74.4 6.90886 77.1044 6.90886C78.607 6.90886 79.8087 7.24401 80.9202 7.94315V10.7133C79.7485 9.86179 78.607 9.34385 77.1946 9.34385C75.9026 9.34385 75.2115 9.98286 75.2115 10.8656C75.2115 11.7476 75.7815 12.2046 77.315 12.6295C80.351 13.2998 81.6723 14.4575 81.6723 16.8917C81.6723 19.722 79.5387 21 76.6539 21C75.0912 21 73.5284 20.5751 72.5373 19.9048L72.5365 17.0441ZM85.7446 14.6395V14.7005C85.9251 17.1042 87.9676 18.4127 90.041 18.4127C91.8745 18.4127 93.1974 17.9869 94.5187 17.1042V19.7532C93.3169 20.6047 91.5436 21 89.832 21C85.6845 21 82.8598 18.3221 82.8598 14.0615C82.8598 9.77039 85.6235 6.90967 89.2905 6.90967C93.1665 6.90967 95 9.43525 95 13.117V14.6403L85.7446 14.6395ZM92.2046 12.6912C92.1453 10.5906 91.124 9.43525 89.2003 9.43525C87.4871 9.43525 86.2252 10.6531 85.8349 12.692L92.2046 12.6912Z" fill="#896E6E"/>
</svg>
