<svg width="120" height="25" viewBox="0 0 120 25" fill="none" xmlns="http://www.w3.org/2000/svg">
<g clip-path="url(#clip0_4256_63)">
<path d="M7.34007 10.5047L12.0014 5.65121L16.6646 10.5086L19.3753 7.68304L12.0014 0L4.62744 7.68107L7.34007 10.5047Z" fill="#896E6E"/>
<path d="M-0.000976562 12.5L2.71066 9.67543L5.42229 12.5L2.71066 15.3246L-0.000976562 12.5Z" fill="#896E6E"/>
<path d="M7.33995 14.4951L12.0013 19.3506L16.6645 14.4932L19.3771 17.3148L19.3752 17.3168L12.0013 24.9998L4.62733 17.3207L4.62354 17.3168L7.33995 14.4951Z" fill="#896E6E"/>
<path d="M18.5752 12.501L21.2868 9.6764L23.9985 12.501L21.2868 15.3256L18.5752 12.501Z" fill="#896E6E"/>
<path d="M14.7519 12.4989L12.0014 9.63184L9.9674 11.7505L9.73235 11.9934L9.25086 12.495L9.24707 12.4989L9.25086 12.5048L12.0014 15.368L14.7519 12.5009L14.7538 12.4989H14.7519Z" fill="#896E6E"/>
<path d="M28.2295 6.05762H34.1286C35.5921 6.05762 36.6991 6.45253 37.4498 7.24236C37.7326 7.53411 37.9555 7.88268 38.1051 8.26692C38.2547 8.65115 38.3277 9.06303 38.3199 9.47757V9.51508C38.3249 9.85468 38.2795 10.193 38.1853 10.5182C38.1013 10.7981 37.9794 11.064 37.8232 11.308C37.6776 11.5381 37.5015 11.7455 37.3 11.9241C37.1032 12.1005 36.8876 12.2529 36.6574 12.3782C37.3212 12.619 37.918 13.0258 38.3957 13.5629C38.8178 14.0632 39.0288 14.7543 39.0288 15.6362V15.6738C39.0408 16.2246 38.9257 16.7704 38.6933 17.2653C38.468 17.7213 38.1378 18.112 37.7322 18.4026C37.2736 18.7229 36.763 18.9537 36.2252 19.0838C35.5863 19.2417 34.9312 19.3179 34.2746 19.3109H28.2295V6.05762ZM33.5372 11.4166C34.0476 11.4423 34.5555 11.3279 35.0101 11.0849C35.1874 10.977 35.3321 10.8196 35.428 10.6304C35.5238 10.4413 35.5668 10.228 35.5523 10.0147V9.97713C35.5616 9.78058 35.5233 9.58473 35.4408 9.40768C35.3583 9.23063 35.2343 9.0781 35.0802 8.96418C34.7656 8.73118 34.3113 8.61468 33.7173 8.61468H30.9573V11.4166H33.5372ZM34.2822 16.7578C34.7907 16.7875 35.2968 16.6663 35.7418 16.4083C35.9152 16.2923 36.0555 16.13 36.1482 15.9383C36.2409 15.7466 36.2825 15.5325 36.2688 15.3183V15.2808C36.2756 15.0773 36.2344 14.8751 36.1488 14.6919C36.0633 14.5088 35.9359 14.3503 35.7778 14.2304C35.4518 13.9671 34.9248 13.8354 34.1969 13.8354H30.9573V16.7578H34.2822Z" fill="#896E6E"/>
<path d="M42.5435 6.05762H45.3433V19.3149H42.5435V6.05762Z" fill="#896E6E"/>
<path d="M49.5801 6.05762H52.1619L58.1293 14.2165V6.05762H60.8931V19.3149H58.5103L52.3477 10.8874V19.3149H49.5801V6.05762Z" fill="#896E6E"/>
<path d="M69.3701 5.96295H71.9482L77.4018 19.315H74.4788L73.3149 16.3413H67.9333L66.7693 19.315H63.9146L69.3701 5.96295ZM72.3159 13.7664L70.6212 9.46583L68.9341 13.7664H72.3159Z" fill="#896E6E"/>
<path d="M80.4292 6.05762H83.011L88.9746 14.2165V6.05762H91.7384V19.3149H89.3556L83.193 10.8874V19.3149H80.4292V6.05762Z" fill="#896E6E"/>
<path d="M101.815 19.548C100.923 19.5559 100.038 19.3759 99.2146 19.0188C98.439 18.6852 97.7353 18.1933 97.1451 17.572C96.5549 16.9507 96.09 16.2127 95.7778 15.4014C95.4485 14.5527 95.2817 13.6451 95.2869 12.7298V12.6923C95.2722 10.8879 95.9387 9.14987 97.1427 7.85259C97.7351 7.2189 98.4443 6.71651 99.2278 6.37562C100.08 6.00788 100.995 5.82448 101.918 5.83656C102.463 5.83232 103.008 5.88324 103.544 5.9886C104.003 6.07897 104.451 6.21859 104.882 6.40523C105.274 6.57675 105.646 6.79262 105.991 7.04894C106.329 7.29893 106.646 7.57764 106.939 7.88221L105.159 10.0226C104.704 9.58555 104.194 9.21549 103.643 8.92281C103.101 8.65301 102.507 8.51783 101.906 8.52789C101.407 8.52234 100.912 8.62758 100.454 8.83661C99.9966 9.04564 99.587 9.35368 99.2525 9.74028C98.9208 10.1259 98.6611 10.5725 98.4867 11.0573C98.304 11.5696 98.2122 12.1122 98.2156 12.6587V12.6962C98.2138 13.2419 98.3056 13.7835 98.4867 14.2956C98.6589 14.7821 98.916 15.2313 99.2449 15.6205C99.5767 16.0119 99.9854 16.3245 100.443 16.5371C100.901 16.7497 101.397 16.8573 101.899 16.8527C102.537 16.8736 103.171 16.7305 103.743 16.436C104.288 16.1265 104.792 15.7442 105.243 15.2987L107.025 17.1745C106.71 17.5302 106.37 17.8603 106.007 18.1618C105.65 18.4555 105.263 18.7066 104.852 18.9102C104.415 19.1247 103.954 19.2831 103.48 19.3821C102.932 19.4965 102.374 19.5521 101.815 19.548Z" fill="#896E6E"/>
<path d="M110.329 6.05762H119.907V8.6522H113.083V11.3416H119.092V13.9361H113.092V16.7203H120.002V19.3149H110.334L110.329 6.05762Z" fill="#896E6E"/>
</g>
<defs>
<clipPath id="clip0_4256_63">
<rect width="120" height="25" fill="white"/>
</clipPath>
</defs>
</svg>
