<svg width="29" height="27" viewBox="0 0 29 27" fill="none" xmlns="http://www.w3.org/2000/svg">
<path d="M2.14749 6.73313C2.14749 9.02506 2.9254 10.6788 4.45783 11.6499C5.71433 12.4476 7.17037 12.5673 7.92802 12.5673C8.11197 12.5673 8.26007 12.5581 8.36296 12.5519C8.36296 12.5519 8.12288 14.0922 9.28273 15.614H9.22972C7.22026 15.614 0.666504 16.0266 0.666504 21.3315C0.666504 26.7254 6.68555 27 7.89372 27C7.98881 27 8.04493 26.9969 8.04493 26.9969C8.05741 26.9969 8.14315 27 8.29125 27C9.06604 27 11.0693 26.9049 12.9291 26.0136C15.3423 24.863 16.5661 22.8549 16.5661 20.0536C16.5661 17.3475 14.7016 15.7367 13.3406 14.5585C12.5097 13.839 11.7911 13.2193 11.7911 12.6164C11.7911 12.0027 12.3164 11.541 12.979 10.9565C14.0531 10.013 15.0664 8.66761 15.0664 6.12409C15.0664 3.88892 14.7717 2.38705 12.9556 1.43438C13.1442 1.33926 13.8145 1.27023 14.145 1.2242C15.1287 1.09227 16.5676 0.941932 16.5676 0.151875V0H9.39809C9.32638 0.00306818 2.14749 0.263864 2.14749 6.73313ZM13.721 20.5599C13.8582 22.7168 11.9828 24.3077 9.16581 24.5086C6.30517 24.7157 3.95118 23.4486 3.81399 21.2932C3.74696 20.2561 4.20996 19.2436 5.1157 18.4352C6.03391 17.6175 7.29509 17.1112 8.66695 17.0115C8.82908 17.0023 8.98965 16.9931 9.15022 16.9931C11.7988 16.9947 13.5916 18.5257 13.721 20.5599ZM11.8487 5.2558C12.5518 7.69193 11.4902 10.2355 9.79718 10.7064C9.60229 10.7599 9.40086 10.7867 9.19855 10.7862C7.64897 10.7862 6.11342 9.2429 5.54285 7.11511C5.22482 5.92466 5.25133 4.87841 5.61612 3.87511C5.97311 2.88563 6.61851 2.22136 7.42916 1.99585C7.62402 1.94216 7.82513 1.91455 8.02935 1.91455C9.90007 1.91455 11.1036 2.67852 11.8487 5.2558ZM23.9897 10.4318V5.82955H20.8718V10.4318H16.195V13.5H20.8718V18.1023H23.9897V13.5H28.6665V10.4318H23.9897Z" fill="#D53D5C"/>
</svg>
